<?xml version="1.0" encoding="UTF-8"?>
<svg width="40px" height="40px" viewBox="0 0 40 40" version="1.1"
     xmlns="http://www.w3.org/2000/svg"
>
    <title>Plugin Icon</title>
    <g id="Plugin-Icon" stroke="none" stroke-width="1" fill="none" fill-rule="evenodd">
        <g id="enhance" transform="translate(4.000000, 4.000000)">
            <path d="M27.3731254,17.2624412 C27.3731254,17.2624412 27.5739181,16.9280403 28.9130426,14.5364025 C31.4332182,10.0756752 28.7038202,7.65057184 28.0060532,2.79396365 C27.7502454,1.00964739 27.2977014,-0.869867903 26.2084268,0.434903858 C24.4007228,2.59735421 25.2963669,4.54944133 25.888984,6.34541979 C25.2228443,4.85088379 24.6046845,4.36284617 24.2141276,4.70871907 C23.4797261,5.37251362 23.3513785,7.57793663 24.2427761,10.0275052 C24.2427761,10.0275052 23.4321265,8.54456804 22.8123188,8.96833682 C21.64743,9.78931751 22.193018,12.307148 23.4115909,13.6214904 C24.7455816,15.0613915 25.1179479,16.2066954 25.0813768,16.8206721 C25.0544397,17.7203726 27.1967981,17.4556914 27.3731254,17.2624412 L27.3731254,17.2624412 Z"
                  id="Path" fill="#F57AFF" fill-rule="nonzero"/>
            <path d="M11.1155146,11.5061325 C10.3970852,11.1119629 9.97730949,10.6261436 10.0656633,10.1924239 C10.2128352,9.47025499 11.7130121,9.16621389 13.4164536,9.51329104 C14.0526772,9.64290622 14.627294,9.84502986 15.0898522,10.0849923 L15.0902959,10.0828373 C15.2374044,9.36073174 16.7375813,9.05662726 18.4410862,9.40370441 C19.3521954,9.58934885 20.1369852,9.92368631 20.6473331,10.3050529 C21.2515491,10.0043076 22.4656219,10.1272677 23.7198152,10.6697501 C24.8279142,11.149041 25.6758954,11.8296951 25.9926128,12.4275095 C29.0553341,14.2283049 31.6065666,17.1088044 31.7010051,20.7115996 C31.8670013,26.985862 26.2633152,30.6654755 19.3277935,30.8405353 C12.3922718,31.015595 6.74364824,27.6526989 6.57771545,21.3784364 C6.49646036,18.3073488 7.83596518,15.6016555 10.0388529,13.6386034 C9.32302217,13.2448774 8.90508449,12.7600723 8.99324817,12.3272399 C9.10340524,11.7867224 9.9714784,11.480463 11.1155146,11.5061325 Z"
                  id="Path" fill="#FFFFFF"/>
            <path d="M11.1155146,11.5061325 L11.108923,11.8014269 C11.2450333,11.8045175 11.3656227,11.7141701 11.4008988,11.5826742 C11.4361749,11.4511783 11.3769974,11.3126052 11.257616,11.2471556 L11.1155146,11.5061325 Z M10.0656633,10.1924239 L9.77626335,10.1334791 L10.0656633,10.1924239 Z M13.4164536,9.51329104 L13.3575088,9.80269101 L13.4164536,9.51329104 Z M15.0898522,10.0849923 L14.9538355,10.3472016 C15.0361602,10.389912 15.1337657,10.3914735 15.2174144,10.3514182 C15.3010631,10.311363 15.36104,10.2343432 15.379379,10.14343 L15.0898522,10.0849923 L15.0898522,10.0849923 Z M15.0902959,10.0828373 L14.8008325,10.0238925 L14.8007692,10.0244629 L15.0902959,10.0828373 Z M18.4410862,9.40370441 L18.500031,9.11430443 L18.4410862,9.40370441 Z M20.6473331,10.3050529 L20.4705621,10.541656 C20.5598745,10.6084 20.6791606,10.6191618 20.7789765,10.5694805 L20.6473331,10.3050529 L20.6473331,10.3050529 Z M23.7198152,10.6697501 L23.6025594,10.9408328 L23.7198152,10.6697501 Z M25.9926128,12.4275095 L25.7316077,12.5658079 C25.757258,12.6141081 25.7957802,12.6543635 25.8429057,12.682113 L25.9926128,12.4275095 L25.9926128,12.4275095 Z M31.7010051,20.7115996 L31.405774,20.7193321 L31.405774,20.7193955 L31.7010051,20.7115996 Z M19.3277935,30.8405353 L19.3203145,30.5452408 L19.3277935,30.8405353 Z M6.57771545,21.3784364 L6.87294652,21.3706405 L6.57771545,21.3784364 Z M10.0388529,13.6386034 L10.2353356,13.8591076 C10.306948,13.7953187 10.3431227,13.7007256 10.332348,13.6054298 C10.3215734,13.5101341 10.2651916,13.4260059 10.1811444,13.3798167 L10.0388529,13.6386034 Z M8.99324817,12.3272399 L9.28264815,12.3862481 L8.99324817,12.3272399 Z M11.257616,11.2471556 C10.9184615,11.0610675 10.6685482,10.8630637 10.5168129,10.6772925 C10.3638733,10.4900001 10.3353516,10.3485326 10.3551267,10.2513687 L9.77626335,10.1334791 C9.70768455,10.4700349 9.84484214,10.7883369 10.0592618,11.0509265 C10.2749491,11.3150372 10.5942017,11.5569644 10.9734767,11.7650459 L11.257616,11.2471556 Z M10.3551267,10.2513687 C10.3717326,10.1698601 10.4303605,10.0749146 10.5749971,9.97901837 C10.7210281,9.88217142 10.9360182,9.79812754 11.2161645,9.74140109 C11.775126,9.62807495 12.5350069,9.6351103 13.3575088,9.80269101 L13.4754618,9.22389106 C12.5945222,9.04439463 11.7525622,9.02994364 11.0987819,9.162411 C10.7724939,9.22858129 10.4784037,9.33423827 10.248519,9.4866708 C10.0172398,9.64005406 9.83324332,9.85390327 9.77626335,10.1334791 L10.3551267,10.2513687 L10.3551267,10.2513687 Z M13.3575088,9.80269101 C13.9702179,9.92755258 14.5183411,10.1212465 14.9538355,10.3472016 L15.2258689,9.82284633 C14.7361834,9.56874986 14.1351365,9.35825986 13.4754618,9.22389106 L13.3575088,9.80269101 Z M15.379379,10.14343 L15.3798226,10.1412117 L14.8007692,10.0244629 L14.8003255,10.0266179 L15.379379,10.14343 Z M15.3796959,10.1417821 C15.3963018,10.0602735 15.4549931,9.96532796 15.5996297,9.86943174 C15.7455973,9.77258479 15.9606508,9.68860429 16.2407337,9.63181446 C16.7996952,9.51848832 17.5595761,9.52552367 18.382078,9.69310438 L18.500031,9.11430443 C17.6190914,8.934808 16.7771314,8.92035701 16.1233511,9.05282437 C15.7971265,9.11899466 15.5030363,9.22465164 15.2731515,9.37708417 C15.0418724,9.53046743 14.8578125,9.74431664 14.8008325,10.0238925 L15.3796959,10.1417821 L15.3796959,10.1417821 Z M18.382078,9.69310438 C19.2630176,9.87260082 20.0040108,10.1930577 20.4705621,10.541656 L20.8241676,10.0684497 C20.2699596,9.6543149 19.4414365,9.30609688 18.500031,9.11430443 L18.382078,9.69310438 L18.382078,9.69310438 Z M20.7789765,10.5694805 C21.0066429,10.4561544 21.3940941,10.4063999 21.9064702,10.4646475 C22.4095926,10.521881 22.9984703,10.6795742 23.6025594,10.9408328 L23.837071,10.3986673 C23.1869669,10.1174436 22.5417431,9.94238386 21.973211,9.87773472 C21.4139959,9.81409968 20.8923027,9.85320607 20.5157531,10.0406252 L20.7789765,10.5694805 Z M23.6025594,10.9408328 C24.684355,11.4087785 25.460525,12.0541924 25.7316077,12.5658079 L26.2536178,12.289211 C25.8912024,11.6052611 24.9714099,10.8893036 23.837071,10.3986673 L23.6025594,10.9408328 Z M25.8429057,12.682113 C28.8618937,14.4572389 31.3151384,17.26092 31.405774,20.7193321 L31.9962995,20.703867 C31.8980582,16.9567522 29.2487111,13.9993709 26.1423199,12.1728426 L25.8429057,12.682113 L25.8429057,12.682113 Z M31.405774,20.7193955 C31.4860784,23.7551163 30.1754121,26.1561346 27.9975601,27.8290262 C25.8116586,29.5080658 22.7420287,30.4588518 19.3203145,30.5452408 L19.3352725,31.1358297 C22.84908,31.0470956 26.0490857,30.0705767 28.3574403,28.297479 C30.6737809,26.5182332 32.0819913,23.9423453 31.9962995,20.7038036 L31.405774,20.7193955 Z M19.3203145,30.5452408 C15.89822,30.6316298 12.8186392,29.8439878 10.5830466,28.28569 C8.35607385,26.7333501 6.95331428,24.4090233 6.87294652,21.3706405 L6.282421,21.3862324 C6.36798604,24.6220486 7.87253632,27.1163645 10.2452231,28.770305 C12.6092901,30.4181609 15.8218453,31.2245005 19.3352725,31.1358297 L19.3203145,30.5452408 L19.3203145,30.5452408 Z M6.87294652,21.3706405 C6.79429007,18.3960195 8.08993489,15.7709475 10.2353356,13.8591076 L9.84230688,13.4180991 C7.58205886,15.4323001 6.19863064,18.218678 6.282421,21.3862324 L6.87294652,21.3706405 Z M8.7038482,12.2682951 C8.63539617,12.6042171 8.77185656,12.9219486 8.98557901,13.1841579 C9.20044233,13.4478884 9.51849074,13.6894987 9.89649807,13.8973901 L10.1811444,13.3798167 C9.84332098,13.1939821 9.59454856,12.9963585 9.44351042,12.811031 C9.29133141,12.6242457 9.2629365,12.4831584 9.28264815,12.3862481 L8.7038482,12.2682951 L8.7038482,12.2682951 Z M11.1221697,11.210838 C10.5263835,11.1974645 9.98282369,11.2695293 9.56247751,11.4279831 C9.15328649,11.5822537 8.78922309,11.8490264 8.7038482,12.2682951 L9.28264815,12.3862481 C9.30736694,12.2649993 9.43248204,12.1083202 9.77087592,11.9807332 C10.098178,11.8573928 10.5606095,11.7891309 11.108923,11.8014269 L11.1221697,11.210838 Z"
                  id="Shape" fill="#CCECFF" fill-rule="nonzero"/>
            <path d="M21.8793429,22.7676324 C21.8793429,22.7676324 22.9122714,25.2955405 23.398978,24.2460695 C23.6369122,23.6847628 23.8513952,22.9805942 23.987095,22.5168317 C23.987095,22.5168317 24.9538532,24.6909443 25.5449492,23.8888513 C26.1359818,23.0867583 25.8109614,21.7211403 25.8109614,21.7211403"
                  id="Path" stroke="#003451" stroke-width="0.932" stroke-linecap="round" stroke-linejoin="round"/>
            <path d="M17.4693209,22.8708809 C18.2598784,23.071103 19.0631123,22.5922557 19.2635246,21.8013179 C19.4638736,21.0103166 18.98547,20.2067658 18.1949124,20.0065437 C17.4044182,19.8062581 16.6011843,20.2851688 16.400772,21.0761066 C16.200423,21.8670445 16.6788267,22.6705953 17.4693209,22.8708809 Z M28.4063708,21.2464128 C29.196865,21.4466349 30.0001623,20.9677876 30.2005112,20.1768498 C30.4008602,19.3858485 29.9224565,18.5823611 29.1319623,18.3820756 C28.3414682,18.1818534 27.5381709,18.6607007 27.3378219,19.4516385 C27.137473,20.2426398 27.6158766,21.0461272 28.4063708,21.2464128 Z"
                  id="Shape" fill="#003451" fill-rule="nonzero"/>
            <path d="M13.3566215,21.0458737 C13.3566215,21.0458737 13.2379713,20.6758524 12.349109,18.0711259 C10.6934572,13.2183206 7.06809819,13.6484275 2.9810683,10.938868 C1.47987724,9.9466938 -0.217289453,9.03520431 0.0228630873,10.7135467 C0.447772729,13.5067064 2.4867559,14.1308876 4.21897256,14.8926699 C2.6622593,14.3991181 1.88564566,14.536656 1.88399774,15.0574618 C1.88273011,16.0571784 3.45192953,17.6076803 5.87183558,18.5719666 C5.87183558,18.5719666 4.22689525,18.1920578 4.14190065,18.9297552 C3.97552418,20.3465221 6.21941978,21.6145959 8.00221489,21.5733346 C9.97204883,21.5312493 11.0662038,22.0180826 11.5034095,22.460232 C12.1484431,23.0769341 13.3784247,21.3063717 13.3566215,21.0458737 Z"
                  id="Path" fill="#F57AFF" fill-rule="nonzero"/>
        </g>
    </g>
</svg>
