<?xml version="1.0" encoding="UTF-8"?>
<svg width="16px" height="16px" viewBox="0 0 16 16" version="1.1" xmlns="http://www.w3.org/2000/svg"
>
    <title>Generator Icon</title>
    <g id="Generator-Icon" stroke="none" stroke-width="1" fill="none" fill-rule="evenodd">
        <g id="enhance" transform="translate(2.000000, 2.000000)">
            <path d="M10.9492502,6.90497648 C10.9492502,6.90497648 11.0295672,6.77121614 11.565217,5.81456098 C12.5732873,4.03027007 11.4815281,3.06022874 11.2024213,1.11758546 C11.1000982,0.403858956 10.9190806,-0.347947161 10.4833707,0.173961543 C9.76028911,1.03894168 10.1185468,1.81977653 10.3555936,2.53816792 C10.0891377,1.94035352 9.84187379,1.74513847 9.68565105,1.88348763 C9.39189042,2.14900545 9.3405514,3.03117465 9.69711042,4.01100209 C9.69711042,4.01100209 9.37285062,3.41782722 9.1249275,3.58733473 C8.658972,3.915727 8.87720721,4.9228592 9.36463637,5.44859614 C9.89823263,6.0245566 10.0471792,6.48267815 10.0325507,6.72826883 C10.0217759,7.08814904 10.8787192,6.98227657 10.9492502,6.90497648 L10.9492502,6.90497648 Z"
                  id="Path" fill="#F57AFF" fill-rule="nonzero"/>
            <path d="M4.44620586,4.60245299 C4.15883409,4.44478514 3.9909238,4.25045743 4.02626533,4.07696957 C4.08513407,3.788102 4.68520486,3.66648556 5.36658144,3.80531641 C5.62107088,3.85716249 5.85091759,3.93801194 6.03594089,4.0339969 L6.03611836,4.03313491 C6.09496175,3.7442927 6.69503253,3.6226509 7.37643447,3.76148176 C7.74087815,3.83573954 8.05479409,3.96947453 8.25893326,4.12202114 C8.50061963,4.00172304 8.98624876,4.05090709 9.48792609,4.26790003 C9.93116566,4.45961642 10.2703581,4.73187803 10.3970451,4.97100379 C11.6221336,5.69132197 12.6426267,6.84352176 12.680402,8.28463983 C12.7468005,10.7943448 10.5053261,12.2661902 7.7311174,12.3362141 C4.95690871,12.406238 2.6974593,11.0610795 2.63108618,8.55137458 C2.59858414,7.3229395 3.13438607,6.2406622 4.01554118,5.45544135 C3.72920887,5.29795097 3.5620338,5.1040289 3.59729927,4.93089597 C3.64136209,4.71468897 3.98859136,4.59218518 4.44620586,4.60245299 Z"
                  id="Path" fill="#FFFFFF"/>
            <path d="M4.44620586,4.60245299 L4.44356919,4.72057077 C4.49801332,4.72180701 4.5462491,4.68566803 4.56035953,4.63306967 C4.57446997,4.58047131 4.55079897,4.52504207 4.5030464,4.49886225 L4.44620586,4.60245299 Z M4.02626533,4.07696957 L3.91050534,4.05339164 L4.02626533,4.07696957 Z M5.36658144,3.80531641 L5.34300352,3.9210764 L5.36658144,3.80531641 Z M6.03594089,4.0339969 L5.9815342,4.13888062 C6.01446407,4.15596479 6.05350627,4.15658938 6.08696576,4.1405673 C6.12042526,4.12454521 6.144416,4.09373729 6.15175158,4.057372 L6.03594089,4.0339969 L6.03594089,4.0339969 Z M6.03611836,4.03313491 L5.92033301,4.00955699 L5.92030766,4.00978517 L6.03611836,4.03313491 Z M7.37643447,3.76148176 L7.40001239,3.64572177 L7.37643447,3.76148176 Z M8.25893326,4.12202114 L8.18822485,4.21666241 C8.22394979,4.24336002 8.27166422,4.24766471 8.31159062,4.22779221 L8.25893326,4.12202114 L8.25893326,4.12202114 Z M9.48792609,4.26790003 L9.44102377,4.37633311 L9.48792609,4.26790003 Z M10.3970451,4.97100379 L10.2926431,5.02632317 C10.3029032,5.04564325 10.3183121,5.06174538 10.3371623,5.0728452 L10.3970451,4.97100379 L10.3970451,4.97100379 Z M12.680402,8.28463983 L12.5623096,8.28773285 L12.5623096,8.2877582 L12.680402,8.28463983 Z M7.7311174,12.3362141 L7.72812579,12.2180963 L7.7311174,12.3362141 Z M2.63108618,8.55137458 L2.74917861,8.54825621 L2.63108618,8.55137458 Z M4.01554118,5.45544135 L4.09413425,5.54364306 C4.12277922,5.51812747 4.13724908,5.48029023 4.13293922,5.44217193 C4.12862936,5.40405364 4.10607663,5.37040237 4.07245777,5.35192666 L4.01554118,5.45544135 Z M3.59729927,4.93089597 L3.71305926,4.95449925 L3.59729927,4.93089597 Z M4.5030464,4.49886225 C4.36738461,4.424427 4.2674193,4.34522547 4.20672516,4.27091699 C4.14554933,4.19600004 4.13414066,4.13941303 4.14205067,4.10054749 L3.91050534,4.05339164 C3.88307382,4.18801397 3.93793686,4.31533475 4.02370471,4.42037059 C4.10997963,4.52601489 4.23768069,4.62278578 4.38939067,4.70601837 L4.5030464,4.49886225 Z M4.14205067,4.10054749 C4.14869305,4.06794404 4.17214421,4.02996584 4.22999885,3.99160735 C4.28841125,3.95286857 4.37440728,3.91925102 4.48646579,3.89656044 C4.71005041,3.85122998 5.01400278,3.85404412 5.34300352,3.9210764 L5.39018471,3.68955643 C5.03780887,3.61775785 4.70102488,3.61197746 4.43951277,3.6649644 C4.30899757,3.69143252 4.19136148,3.73369531 4.09940759,3.79466832 C4.00689594,3.85602162 3.93329733,3.94156131 3.91050534,4.05339164 L4.14205067,4.10054749 L4.14205067,4.10054749 Z M5.34300352,3.9210764 C5.58808714,3.97102103 5.80733646,4.04849859 5.9815342,4.13888062 L6.09034758,3.92913853 C5.89447336,3.82749994 5.65405462,3.74330395 5.39018471,3.68955643 L5.34300352,3.9210764 Z M6.15175158,4.057372 L6.15192905,4.05648466 L5.92030766,4.00978517 L5.92013019,4.01064715 L6.15175158,4.057372 Z M6.15187835,4.05671284 C6.15852073,4.02410939 6.18199724,3.98613119 6.23985188,3.9477727 C6.29823893,3.90903392 6.38426031,3.87544172 6.49629347,3.85272578 C6.71987808,3.80739533 7.02383045,3.81020947 7.35283119,3.87724175 L7.40001239,3.64572177 C7.04763655,3.5739232 6.71085256,3.5681428 6.44934045,3.62112975 C6.3188506,3.64759787 6.20121451,3.68986066 6.10926062,3.75083367 C6.01674897,3.81218697 5.94312501,3.89772666 5.92033301,4.00955699 L6.15187835,4.05671284 L6.15187835,4.05671284 Z M7.35283119,3.87724175 C7.70520704,3.94904033 8.00160433,4.07722309 8.18822485,4.21666241 L8.32966702,4.02737987 C8.10798386,3.86172596 7.77657462,3.72243875 7.40001239,3.64572177 L7.35283119,3.87724175 L7.35283119,3.87724175 Z M8.31159062,4.22779221 C8.40265717,4.18246175 8.55763764,4.16255996 8.76258809,4.185859 C8.96383706,4.2087524 9.1993881,4.27182968 9.44102377,4.37633311 L9.5348284,4.15946694 C9.27478675,4.04697744 9.01669724,3.97695354 8.78928438,3.95109389 C8.56559836,3.92563987 8.35692107,3.94128243 8.20630125,4.01625008 L8.31159062,4.22779221 Z M9.44102377,4.37633311 C9.87374201,4.56351139 10.18421,4.82167695 10.2926431,5.02632317 L10.5014471,4.91568441 C10.3564809,4.64210446 9.98856396,4.35572145 9.5348284,4.15946694 L9.44102377,4.37633311 Z M10.3371623,5.0728452 C11.5447575,5.78289558 12.5260554,6.90436801 12.5623096,8.28773285 L12.7985198,8.28154681 C12.7592233,6.78270087 11.6994844,5.59974837 10.456928,4.86913703 L10.3371623,5.0728452 L10.3371623,5.0728452 Z M12.5623096,8.2877582 C12.5944314,9.50204652 12.0701649,10.4624539 11.199024,11.1316105 C10.3246634,11.8032263 9.09681147,12.1835407 7.72812579,12.2180963 L7.73410901,12.4543319 C9.13963201,12.4188382 10.4196343,12.0282307 11.3429761,11.3189916 C12.2695124,10.6072933 12.8327965,9.57693811 12.7985198,8.28152146 L12.5623096,8.2877582 Z M7.72812579,12.2180963 C6.359288,12.2526519 5.12745568,11.9375951 4.23321863,11.314276 C3.34242954,10.69334 2.78132571,9.76360933 2.74917861,8.54825621 L2.5129684,8.55449295 C2.54719441,9.84881943 3.14901453,10.8465458 4.09808925,11.508122 C5.04371603,12.1672644 6.32873811,12.4898002 7.73410901,12.4543319 L7.72812579,12.2180963 L7.72812579,12.2180963 Z M2.74917861,8.54825621 C2.71771603,7.3584078 3.23597396,6.308379 4.09413425,5.54364306 L3.93692275,5.36723964 C3.03282354,6.17292004 2.47945226,7.28747121 2.5129684,8.55449295 L2.74917861,8.54825621 Z M3.48153928,4.90731805 C3.45415847,5.04168685 3.50874262,5.16877945 3.5942316,5.27366318 C3.68017693,5.37915536 3.8073963,5.47579949 3.95859923,5.55895603 L4.07245777,5.35192666 C3.93732839,5.27759283 3.83781942,5.19854341 3.77740417,5.1244124 C3.71653257,5.04969827 3.7051746,4.99326338 3.71305926,4.95449925 L3.48153928,4.90731805 L3.48153928,4.90731805 Z M4.44886788,4.48433521 C4.21055341,4.47898581 3.99312947,4.50781172 3.82499101,4.57119323 C3.66131459,4.63290146 3.51568924,4.73961057 3.48153928,4.90731805 L3.71305926,4.95449925 C3.72294677,4.90599971 3.77299281,4.84332808 3.90835037,4.79229329 C4.03927121,4.74295712 4.22424381,4.71565236 4.44356919,4.72057077 L4.44886788,4.48433521 Z"
                  id="Shape" fill="#CCECFF" fill-rule="nonzero"/>
            <path d="M8.75173717,9.10705295 C8.75173717,9.10705295 9.16490856,10.1182162 9.35959121,9.69842779 C9.45476488,9.47390513 9.54055809,9.1922377 9.59483802,9.00673269 C9.59483802,9.00673269 9.98154129,9.87637771 10.2179797,9.55554051 C10.4543927,9.23470331 10.3243845,8.68845611 10.3243845,8.68845611"
                  id="Path" stroke="#003451" stroke-width="0.33" stroke-linecap="round" stroke-linejoin="round"/>
            <path d="M6.98772835,9.14835234 C7.30395137,9.22844122 7.62524492,9.03690229 7.70540986,8.72052715 C7.78554944,8.40412665 7.59418798,8.08270634 7.27796496,8.00261746 C6.96176728,7.92250324 6.64047373,8.11406751 6.5603088,8.43044265 C6.48016921,8.7468178 6.67153067,9.06823811 6.98772835,9.14835234 Z M11.3625483,8.4985651 C11.678746,8.57865398 12.0000649,8.38711505 12.0802045,8.07073991 C12.1603441,7.75433941 11.9689826,7.43294445 11.6527849,7.35283022 C11.3365873,7.27274135 11.0152684,7.46428027 10.9351288,7.78065542 C10.8549892,8.09705591 11.0463507,8.41845087 11.3625483,8.4985651 Z"
                  id="Shape" fill="#003451" fill-rule="nonzero"/>
            <path d="M5.34264858,8.41834946 C5.34264858,8.41834946 5.29518851,8.27034096 4.93964359,7.22845035 C4.27738287,5.28732823 2.82723928,5.459371 1.19242732,4.37554718 C0.591950894,3.97867752 -0.0869157814,3.61408172 0.00914523491,4.28541868 C0.179109092,5.40268258 0.99470236,5.65235502 1.68758903,5.95706797 C1.06490372,5.75964724 0.754258264,5.81466239 0.753599097,6.02298474 C0.753092045,6.42287136 1.38077181,7.04307211 2.34873423,7.42878663 C2.34873423,7.42878663 1.6907581,7.27682312 1.65676026,7.57190208 C1.59020967,8.13860883 2.48776791,8.64583838 3.20088595,8.62933383 C3.98881953,8.6124997 4.42648153,8.80723305 4.6013638,8.98409282 C4.85937725,9.23077366 5.35136988,8.52254866 5.34264858,8.41834946 Z"
                  id="Path" fill="#F57AFF" fill-rule="nonzero"/>
        </g>
    </g>
</svg>
